<svg width="321" height="42" viewBox="0 0 321 42" fill="none" xmlns="http://www.w3.org/2000/svg">
<path d="M1.57644 0.496562C0.524545 1.02116 0 1.94834 0 3.26965C0 4.59518 0.524545 5.52936 1.57644 6.075C2.62833 6.62064 3.67883 6.63045 4.73072 6.10445C5.78262 5.57845 6.30856 4.65409 6.30856 3.32857C6.30856 2.00584 5.78262 1.07166 4.73072 0.524621C4.19496 0.246892 3.66059 0.108031 3.12483 0.108031C2.6087 0.108031 2.09257 0.237067 1.57644 0.496562ZM0.699861 40.9553H5.49089V11.976H0.699861V40.9553Z" fill="url(#paint0_linear_27_34)"/>
<path d="M42.5849 0.0561135H37.8528V17.3497C36.8794 15.4799 35.3815 14.0506 33.3549 13.0575C31.3296 12.063 29.2272 11.5665 27.0463 11.5665C22.8008 11.5665 19.3156 12.8808 16.5891 15.5094C13.8625 18.1394 12.5007 21.8102 12.5007 26.5231C12.5007 31.159 13.8738 34.8087 16.6199 37.478C19.3647 40.1445 22.8598 41.4785 27.1052 41.4785C29.324 41.4785 31.3983 40.9805 33.3254 39.9902C35.2539 38.9971 36.7826 37.5468 37.9117 35.6377L38.1459 40.8949H42.6438V5.27601e-06L42.5849 0.0561135ZM20.1823 34.1172C18.2553 32.2475 17.2903 29.696 17.2903 26.4642C17.2903 23.1932 18.2553 20.6319 20.1823 18.7818C22.1038 16.9387 24.5175 16.0129 27.425 16.0073C30.3338 16.0129 32.7672 16.9864 34.7279 18.9277C36.6943 20.8746 37.6788 23.3699 37.6788 26.4053C37.6788 29.5221 36.7041 32.0553 34.7574 34.0008C32.8093 35.9505 30.3759 36.9226 27.4558 36.9226C24.5344 36.9226 22.1108 35.987 20.1823 34.1172Z" fill="url(#paint1_linear_27_34)"/>
<path d="M53.8009 15.6566C50.9972 18.4606 49.5947 22.043 49.5947 26.4053C49.5947 30.9626 50.9972 34.6152 53.8009 37.3588C56.6045 40.108 60.2651 41.4785 64.7827 41.4785C67.1585 41.4785 69.4755 41.0408 71.735 40.1656C73.993 39.2889 75.8233 38.0125 77.2259 36.3391H77.2834L74.0716 33.4187C73.1361 34.5464 71.8023 35.4343 70.0702 36.074C68.3367 36.7192 66.613 37.0376 64.8991 37.0376C62.0954 37.0376 59.7209 36.2521 57.7728 34.6727C55.8233 33.0961 54.7139 31.0033 54.4432 28.3943H78.9762C79.5232 22.9 78.4236 18.7046 75.6775 15.8025C72.9299 12.9018 69.2231 11.45 64.5498 11.45C60.1866 11.45 56.6045 12.8513 53.8009 15.6566ZM57.8906 18.0524C59.7981 16.5319 62.0561 15.7731 64.6648 15.7731C67.547 15.7731 69.864 16.5221 71.6172 18.0215C73.3577 19.5126 74.2918 21.6236 74.4194 24.3602H54.4432C54.8331 21.6741 55.9818 19.5701 57.8906 18.0524Z" fill="url(#paint2_linear_27_34)"/>
<path d="M88.0618 15.6272C85.2371 18.3344 83.8262 21.9659 83.8262 26.5232C83.8262 31.1183 85.2287 34.7905 88.0337 37.5355C90.836 40.282 94.3605 41.6552 98.6074 41.6552C100.708 41.6552 102.732 41.1572 104.682 40.1656C106.628 39.1711 108.147 37.7207 109.237 35.8131L109.355 41.0689L109.47 40.9553H114.088V12.0925H109.414L109.355 17.3497C108.342 15.5206 106.863 14.1067 104.915 13.115C102.966 12.1219 100.885 11.6254 98.6635 11.6254C98.6032 11.6254 98.5429 11.624 98.4826 11.624C94.3185 11.624 90.8444 12.9593 88.0618 15.6272ZM91.4784 34.3515C89.4938 32.4046 88.4994 29.8503 88.4994 26.6971C88.4994 23.5425 89.4938 21.0022 91.4784 19.0736C93.4657 17.1477 95.9187 16.1827 98.8402 16.1827L98.8977 16.1237C100.807 16.1237 102.499 16.5137 103.98 17.2922C105.46 18.0707 106.591 19.0848 107.368 20.3289C108.147 21.5773 108.711 22.952 109.062 24.45C109.414 25.9495 109.414 27.4489 109.062 28.9498C108.711 30.4478 108.147 31.8196 107.368 33.0666C106.591 34.3136 105.45 35.3235 103.952 36.1076C102.45 36.8861 100.746 37.2704 98.8402 37.2704C95.9187 37.2704 93.4657 36.2998 91.4784 34.3515Z" fill="url(#paint3_linear_27_34)"/>
<path d="M136.577 11.5665C132.37 11.5665 129.046 13.1641 127.331 16.358L127.347 12.0336L127.289 12.0925H122.849V40.9553H127.638V24.8876C127.638 22.3165 128.456 20.242 130.091 18.664C131.728 17.0874 133.732 16.2794 136.11 16.2402C137.94 16.2402 139.612 16.7662 141.132 17.8168L143.293 13.728C141.441 12.2846 139.326 11.5608 136.947 11.5608C136.823 11.5608 136.7 11.5637 136.577 11.5665Z" fill="url(#paint4_linear_27_34)"/>
<path d="M184.361 15.5402C181.519 18.1885 180.097 21.8494 180.097 26.5231C180.097 31.159 181.536 34.8087 184.42 37.478C187.3 40.1445 190.884 41.4785 195.167 41.4785C199.376 41.4785 202.955 40.0014 205.917 37.039L202.763 33.8858C200.776 35.9084 198.264 36.9226 195.227 36.9226C192.307 36.9226 189.861 35.9982 187.895 34.1481C185.93 32.2966 184.944 29.7549 184.944 26.5231C184.944 23.3699 185.93 20.8465 187.895 18.9571C189.861 17.0691 192.324 16.1237 195.285 16.1237C198.167 16.1237 200.6 17.0972 202.586 19.0441L205.624 15.8909C202.706 13.0084 199.218 11.5665 195.167 11.5665C190.808 11.5665 187.204 12.8906 184.361 15.5402ZM205.917 37.039L205.975 37.0965L205.919 37.0376C205.917 37.0376 205.917 37.039 205.917 37.039Z" fill="url(#paint5_linear_27_34)"/>
<path d="M212.053 0.0561287V40.9553H216.781V27.3409L230.394 40.9553H236.236V40.6032L221.282 25.7054L234.599 12.3842V12.0925H228.64L216.781 24.2438V0.0561287H212.053Z" fill="url(#paint6_linear_27_34)"/>
<path d="M241.55 15.6566C238.748 18.4606 237.345 22.043 237.345 26.4053C237.345 30.9626 238.748 34.6152 241.55 37.3588C244.355 40.108 248.016 41.4785 252.535 41.4785C254.909 41.4785 257.226 41.0408 259.486 40.1656C261.742 39.2889 263.574 38.0125 264.976 36.3391H265.032L261.824 33.4187C260.885 34.5464 259.553 35.4343 257.821 36.074C256.086 36.7192 254.363 37.0376 252.65 37.0376C249.846 37.0376 247.471 36.2521 245.521 34.6727C243.575 33.0961 242.466 31.0033 242.194 28.3943H266.725C267.272 22.9 266.171 18.7046 263.428 15.8025C260.682 12.9018 256.974 11.45 252.302 11.45C247.938 11.45 244.355 12.8513 241.55 15.6566ZM245.641 18.0524C247.547 16.5319 249.808 15.7731 252.417 15.7731C255.299 15.7731 257.616 16.5221 259.366 18.0215C261.107 19.5126 262.042 21.6236 262.17 24.3602H242.194C242.582 21.6741 243.731 19.5701 245.641 18.0524Z" fill="url(#paint7_linear_27_34)"/>
<path d="M287.117 11.5665C282.909 11.5665 279.95 13.1641 278.239 16.358L277.885 12.0336L277.829 12.0925H273.387V40.9553H278.178V24.8876C278.178 22.3165 278.996 20.242 280.631 18.664C282.267 17.0874 284.271 16.2794 286.648 16.2402C288.476 16.2402 290.153 16.7662 291.672 17.8168L293.833 13.728C291.981 12.2846 289.864 11.5608 287.485 11.5608C287.363 11.5608 287.24 11.5637 287.117 11.5665Z" fill="url(#paint8_linear_27_34)"/>
<path d="M303.209 12.2103C301.514 12.7545 300.062 13.6901 298.856 15.0128C297.648 16.3384 297.045 17.9753 297.045 19.9208C297.045 21.4006 297.368 22.656 298.009 23.6884C298.651 24.7221 299.579 25.5315 300.784 26.1136C301.992 26.6971 303.181 27.1445 304.348 27.4602C305.516 27.7715 306.917 28.0212 308.554 28.2176C311.084 28.5304 313.023 29.0143 314.365 29.6778C315.71 30.3412 316.361 31.3918 316.324 32.8324C316.282 34.43 315.535 35.5788 314.073 36.2788C312.615 36.9815 310.929 37.3308 309.02 37.3308C304.581 37.3308 301.156 35.8523 298.739 32.8913L295.995 36.2212C298.875 39.8429 303.181 41.6552 308.905 41.6552C312.331 41.6552 315.194 40.9062 317.49 39.4039C319.788 37.9044 320.957 35.7724 320.996 33.0063C321.035 31.6429 320.783 30.4478 320.237 29.4155C319.692 28.3831 319.058 27.5738 318.337 26.9902C317.617 26.4053 316.633 25.9088 315.389 25.502C314.143 25.0896 313.083 24.8091 312.204 24.6534C311.328 24.4977 310.209 24.342 308.846 24.1863C304.094 23.6393 301.7 22.2198 301.659 19.9208C301.622 18.5588 302.272 17.5068 303.619 16.7662C304.961 16.027 306.683 15.6763 308.787 15.7142C312.138 15.7142 314.843 16.6497 316.908 18.5195L316.967 18.4606L319.711 15.306C316.87 12.7349 313.208 11.45 308.73 11.45C308.599 11.4472 308.471 11.4458 308.342 11.4458C306.504 11.4458 304.793 11.6997 303.209 12.2103Z" fill="url(#paint9_linear_27_34)"/>
<path d="M165.692 17.4394C165.692 17.835 166.836 18.2993 167.365 18.8407C169.31 20.8465 170.278 23.426 170.278 26.5807C170.239 29.6188 169.251 32.1128 167.326 34.0597C165.397 36.0066 162.952 36.9815 159.995 36.9815C157.034 36.9815 154.599 36.0066 152.69 34.0597C150.781 32.1128 149.828 29.6188 149.828 26.5807C149.828 23.3882 150.85 20.7974 152.78 18.8113C153.286 18.2867 154.47 17.835 154.47 17.4493V12.4066C153.069 13.1094 150.816 14.2007 149.331 15.6847C146.506 18.5097 145.066 22.1412 145.066 26.5807C145.066 30.9444 146.464 34.5184 149.288 37.3013C152.11 40.087 155.675 41.4785 159.999 41.4785C164.362 41.4785 167.95 40.087 170.774 37.3013C173.596 34.5184 175.01 30.9444 175.01 26.5807C175.01 22.1033 173.61 18.4606 170.808 15.6566C169.324 14.1698 167.093 13.0827 165.692 12.3842V17.4394Z" fill="url(#paint10_linear_27_34)"/>
<path d="M160.018 13.0182H160.003C158.697 13.0182 158.679 12.568 158.679 13.735V26.1318C158.679 27.2946 158.697 27.045 160.003 27.045H160.018C161.326 27.045 161.484 27.2946 161.484 26.1318V13.735C161.484 13.0771 161.434 12.9327 161.154 12.9327C160.94 12.9327 160.588 13.0182 160.018 13.0182Z" fill="url(#paint11_linear_27_34)"/>
<defs>
<linearGradient id="paint0_linear_27_34" x1="-3.78682e-05" y1="20.5319" x2="6.30859" y2="20.5319" gradientUnits="userSpaceOnUse">
<stop offset="1" stop-color="white"/>
</linearGradient>
<linearGradient id="paint1_linear_27_34" x1="12.5001" y1="20.7387" x2="42.6434" y2="20.7387" gradientUnits="userSpaceOnUse">
<stop offset="1" stop-color="white"/>
</linearGradient>
<linearGradient id="paint2_linear_27_34" x1="49.5944" y1="26.4645" x2="79.1132" y2="26.4645" gradientUnits="userSpaceOnUse">
<stop offset="1" stop-color="white"/>
</linearGradient>
<linearGradient id="paint3_linear_27_34" x1="83.8262" y1="26.6398" x2="114.087" y2="26.6398" gradientUnits="userSpaceOnUse">
<stop offset="1" stop-color="white"/>
</linearGradient>
<linearGradient id="paint4_linear_27_34" x1="122.848" y1="26.2577" x2="143.293" y2="26.2577" gradientUnits="userSpaceOnUse">
<stop offset="1" stop-color="white"/>
</linearGradient>
<linearGradient id="paint5_linear_27_34" x1="180.097" y1="26.522" x2="205.975" y2="26.522" gradientUnits="userSpaceOnUse">
<stop offset="1" stop-color="white"/>
</linearGradient>
<linearGradient id="paint6_linear_27_34" x1="212.053" y1="20.5059" x2="236.235" y2="20.5059" gradientUnits="userSpaceOnUse">
<stop offset="1" stop-color="white"/>
</linearGradient>
<linearGradient id="paint7_linear_27_34" x1="237.345" y1="26.4645" x2="266.862" y2="26.4645" gradientUnits="userSpaceOnUse">
<stop offset="1" stop-color="white"/>
</linearGradient>
<linearGradient id="paint8_linear_27_34" x1="273.387" y1="26.2577" x2="293.833" y2="26.2577" gradientUnits="userSpaceOnUse">
<stop offset="1" stop-color="white"/>
</linearGradient>
<linearGradient id="paint9_linear_27_34" x1="295.995" y1="26.5508" x2="321" y2="26.5508" gradientUnits="userSpaceOnUse">
<stop offset="1" stop-color="white"/>
</linearGradient>
<linearGradient id="paint10_linear_27_34" x1="145.066" y1="26.9316" x2="175.01" y2="26.9316" gradientUnits="userSpaceOnUse">
<stop offset="1" stop-color="white"/>
</linearGradient>
<linearGradient id="paint11_linear_27_34" x1="160.08" y1="12.933" x2="160.08" y2="27.0679" gradientUnits="userSpaceOnUse">
<stop offset="0.110577" stop-color="white"/>
</linearGradient>
</defs>
</svg>
